<svg id="Layer_1" data-name="Layer 1" xmlns="http://www.w3.org/2000/svg" viewBox="0 0 1955.45 347.16"><defs><style>.cls-1{fill:#53534d;}.cls-2{fill:#b5152b;}</style></defs><title>Logo_RGB</title><path class="cls-1" d="M439.36,133.69A66.43,66.43,0,0,0,414,128.63q-19.8,0-33.95,8.52a70.75,70.75,0,0,0-23.16,22.37,97.43,97.43,0,0,0-13,30.65,143,143,0,0,0-4.05,33.42,129.69,129.69,0,0,0,4.28,32,114.93,114.93,0,0,0,13,31.35,78.33,78.33,0,0,0,22.27,24q13.49,9.45,31.92,9.45a48.36,48.36,0,0,0,14.85-2.31A141.76,141.76,0,0,0,439.59,313c2.08-.92,4.11-1.85,6.07-2.76a53.73,53.73,0,0,1,5.62-2.32,24,24,0,0,1,7.64-1.83,12.24,12.24,0,0,1,8.76,3.68,11.73,11.73,0,0,1,3.83,8.76,17.88,17.88,0,0,1-7,14.75,47.16,47.16,0,0,1-16.63,8.3,106.58,106.58,0,0,1-19.79,3.69q-10.12.93-16.42.92-24.74,0-43.84-9.68a97.13,97.13,0,0,1-32.38-26.27,115.14,115.14,0,0,1-20-38.5,162.26,162.26,0,0,1,.22-93.36,118.61,118.61,0,0,1,20.46-39,99.62,99.62,0,0,1,33-26.73q19.56-9.91,44.74-9.92,18.9,0,32.83,4.84a169.53,169.53,0,0,1,29.68,14.07l-13,23.51a231.88,231.88,0,0,0-24.06-11.53"/><path class="cls-1" d="M555.16,135.53a75.67,75.67,0,0,0-22.72,23.29,98.82,98.82,0,0,0-12.58,31.35A154,154,0,0,0,516,223.59a177.76,177.76,0,0,0,3.37,33.65,105.88,105.88,0,0,0,11.69,32.27,71.58,71.58,0,0,0,22,24.21q13.71,9.46,34,9.45,22,0,36.19-9.68a65.94,65.94,0,0,0,21.81-24.44,108.63,108.63,0,0,0,10.58-32.95,222.44,222.44,0,0,0,2.91-35.28,179.81,179.81,0,0,0-3.14-33,95.63,95.63,0,0,0-11-30.43,66.38,66.38,0,0,0-21.15-22.35q-13.26-8.78-33.94-8.76-20.24,0-34.17,9.21m102.07,160q-17.1,29-34.85,40.11a69.93,69.93,0,0,1-37.55,11.06q-24.27,0-42.72-10.37a96.45,96.45,0,0,1-31-27.66A127.66,127.66,0,0,1,492,269.46a158.09,158.09,0,0,1-6.52-45.41,150.29,150.29,0,0,1,6.75-44.49,126.06,126.06,0,0,1,19.56-38.95A99.89,99.89,0,0,1,543,113.18q18.43-10.37,41.82-10.37A78.65,78.65,0,0,1,621.47,112q17.78,9.24,36.21,32.74V118.94a58.45,58.45,0,0,1,1.8-8.76,9.89,9.89,0,0,1,3.6-5.3q2.68-2.07,9.44-2.07c3.29,0,6.3,1.46,9,4.37a14.24,14.24,0,0,1,4,9.92V344.38H657.23Z"/><path class="cls-1" d="M1014.27,342.3a14.78,14.78,0,0,1-4-10.37V185.33a61.75,61.75,0,0,0-4.26-22.82A58.33,58.33,0,0,0,994,143.6a56.14,56.14,0,0,0-18-12.67,56.58,56.58,0,0,0-44.74,0,57.83,57.83,0,0,0-18.44,12.67A60,60,0,0,0,896,185.33V342.54H868.58V185.33a58.65,58.65,0,0,0-4.5-23.06,60.31,60.31,0,0,0-12.36-18.67,58.21,58.21,0,0,0-18.45-12.67,56.14,56.14,0,0,0-22.7-4.61A56,56,0,0,0,770.1,143.6,62.08,62.08,0,0,0,758,162.27a57.14,57.14,0,0,0-4.51,22.6V342.54H725.13v-225a14.38,14.38,0,0,1,4.27-10.37,13.69,13.69,0,0,1,10.11-4.37c3.6,0,6.23.61,7.87,1.85a9.14,9.14,0,0,1,3.38,5.06,18.33,18.33,0,0,1,1.35,7.83,9,9,0,0,0,.23,2.32,12.51,12.51,0,0,1,.22,2.75v17.06a108.76,108.76,0,0,1,16.18-19.36A70,70,0,0,1,784.93,109a60.8,60.8,0,0,1,16.2-5.3,96,96,0,0,1,16.18-1.39,69.71,69.71,0,0,1,38.23,11.53q18,11.52,29.23,37.81,13.92-26.29,32.82-37.34a78.71,78.71,0,0,1,40.47-11.08q36.42,0,58.24,21.67t21.81,59v148a14.74,14.74,0,0,1-4,10.37,13.37,13.37,0,0,1-19.79,0"/><path class="cls-1" d="M1100.84,323.86q-23.16-22.82-23.17-67.53V112l28.33-.46V255.39q0,30.45,14.85,48.65t46.76,18.21q31.92,0,47-18t15.07-48.88V117.56a14.54,14.54,0,0,1,4-10.6,13.26,13.26,0,0,1,9.9-4.15,12.77,12.77,0,0,1,10.1,4.37,16,16,0,0,1,3.83,10.84V256.33q0,44.73-23.16,67.53t-66.78,22.82q-43.62,0-66.77-22.82"/><path class="cls-1" d="M1452,343.45a14.39,14.39,0,0,1-3.82-10.14V191.79a62.91,62.91,0,0,0-5-24.67A70.45,70.45,0,0,0,1430,146.37a59.92,59.92,0,0,0-43.84-19.13,56.82,56.82,0,0,0-24.06,5.07,62.4,62.4,0,0,0-19.33,13.83,64.79,64.79,0,0,0-13,20.28,64.05,64.05,0,0,0-4.73,24.44V343h-27.87V117.1a14.14,14.14,0,0,1,4.27-10.61,14.57,14.57,0,0,1,10.57-4.15c3.89,0,6.67.69,8.32,2.07a10.7,10.7,0,0,1,3.37,5.77,29.76,29.76,0,0,1,1.34,9.22v23.06a98.44,98.44,0,0,1,16.65-20.06,74.82,74.82,0,0,1,17.08-11.75,67.27,67.27,0,0,1,17.31-5.77,96.1,96.1,0,0,1,17.32-1.61,87.2,87.2,0,0,1,34.18,6.45,74,74,0,0,1,26.07,18.21,82.42,82.42,0,0,1,16.65,27.89,104,104,0,0,1,5.84,35.5V332.86a14.55,14.55,0,0,1-4,10.59,13.84,13.84,0,0,1-10.35,4.15,12.55,12.55,0,0,1-9.67-4.15"/><path class="cls-1" d="M1585.14,137.84a72.46,72.46,0,0,0-22.48,22.59,100.73,100.73,0,0,0-12.82,30.66,139.3,139.3,0,0,0-4,32.5,158.61,158.61,0,0,0,3.59,32.74,101.67,101.67,0,0,0,11.92,31.11,73.7,73.7,0,0,0,21.59,23.29q13.26,9.22,33,9.21,19.33,0,33-7.83a65,65,0,0,0,22.27-20.76,89.57,89.57,0,0,0,12.35-28.8,139,139,0,0,0,3.83-32.5,226.82,226.82,0,0,0-2.69-33.89,111.49,111.49,0,0,0-10.12-32.74,65.29,65.29,0,0,0-21.15-24.65q-13.71-9.69-35.29-9.68-19.34,0-33,8.75m107,206.08a13.23,13.23,0,0,1-3.82-7.38A41.68,41.68,0,0,1,1687,325v-30q-17.54,28.59-36.19,39.88t-38.9,11.29q-22.94,0-40.69-10.6a99.24,99.24,0,0,1-30.13-27.9A132,132,0,0,1,1522.18,269a148.78,148.78,0,0,1-6.51-43.56,155.62,155.62,0,0,1,6.73-45.65A125.83,125.83,0,0,1,1542,140.6a99.29,99.29,0,0,1,31.48-27.42q18.65-10.37,42.94-10.37A68,68,0,0,1,1653,113.64q17.31,10.85,34.4,39.88V0h28.33V332.39a14,14,0,0,1-4,10.14,13.32,13.32,0,0,1-9.9,4.15c-4.5,0-7.73-.91-9.67-2.76"/><path class="cls-1" d="M1825,135.53a75.5,75.5,0,0,0-22.7,23.29,98.62,98.62,0,0,0-12.6,31.35,154.57,154.57,0,0,0-3.82,33.42,177.76,177.76,0,0,0,3.37,33.65A106.14,106.14,0,0,0,1801,289.51a71.48,71.48,0,0,0,22,24.21q13.71,9.46,34,9.45,22,0,36.19-9.68a66,66,0,0,0,21.8-24.44,108.35,108.35,0,0,0,10.57-32.95,222.53,222.53,0,0,0,2.93-35.28,179,179,0,0,0-3.15-33,95.17,95.17,0,0,0-11-30.43,66.22,66.22,0,0,0-21.13-22.35q-13.28-8.78-34-8.76-20.24,0-34.17,9.21m102.07,160q-17.08,29-34.84,40.11a70,70,0,0,1-37.54,11.06q-24.3,0-42.72-10.37a96.38,96.38,0,0,1-31-27.66,128.11,128.11,0,0,1-19.11-39.19,158.09,158.09,0,0,1-6.52-45.41,150.28,150.28,0,0,1,6.74-44.49,126.28,126.28,0,0,1,19.56-38.95,99.93,99.93,0,0,1,31.26-27.43q18.43-10.37,41.83-10.37a78.71,78.71,0,0,1,36.64,9.21q17.78,9.24,36.2,32.74V118.94a57.2,57.2,0,0,1,1.8-8.76,9.92,9.92,0,0,1,3.59-5.3q2.7-2.07,9.44-2.07,4.95,0,9,4.37a14.29,14.29,0,0,1,4,9.92V344.38h-28.34Z"/><path class="cls-2" d="M88.27,329.3a49.22,49.22,0,0,1-70.84,1.06,52.23,52.23,0,0,1-.89-72.59,49.24,49.24,0,0,1,70.84-1.07,52.23,52.23,0,0,1,.89,72.6"/><path class="cls-2" d="M225.49,215.94l.29-.13,5.33,21.59L208,247.28l-11.1-19.11.86-.36a69.11,69.11,0,0,1-25.21.13l-11.1,19.15-23.15-9.79,5.33-21.6.49.2a72.12,72.12,0,0,1-17.55-18.13l0,.08-21,5.52-9.6-23.75,18.65-11.44.35.86a75.22,75.22,0,0,1-.08-25.84L96.19,131.83l9.6-23.78,21,5.44-.25.64a72.83,72.83,0,0,1,9.87-11.63H15.54A15.75,15.75,0,0,0,0,118.45V222.54l14.28,10.58-.5.54a69,69,0,0,1,22.77-10H36.4l2.8-21.7,24.64-.4L67.2,223.1l-.83,0a68.88,68.88,0,0,1,23,9.25L106.28,219,124,236.62l-12.55,17.73-.45-.47a72.34,72.34,0,0,1,9.68,23.17V277l21.18,2.8.34,25.26-21.08,3.48v-.8A72.87,72.87,0,0,1,112,331.3l11.34,15.1h98.54a15.74,15.74,0,0,0,15.51-16V205.35a71.74,71.74,0,0,1-11.89,10.59"/><path class="cls-2" d="M232,175.88c-10.8,26.69-40.61,39.36-66.59,28.33S127.17,162.6,138,135.91s40.61-39.35,66.57-28.31,38.3,41.59,27.49,68.28"/></svg>